<?xml version="1.0" encoding="UTF-8" standalone="no"?>
<!-- Created with Inkscape (http://www.inkscape.org/) -->

<svg
   width="136.52802mm"
   height="112.43022mm"
   viewBox="0 0 136.52802 112.43022"
   version="1.1"
   id="svg1"
   xml:space="preserve"
   xmlns="http://www.w3.org/2000/svg"
   xmlns:svg="http://www.w3.org/2000/svg"><defs
     id="defs1" /><g
     id="layer1"
     transform="translate(-36.147259,-35.708339)"><g
       id="g2"
       transform="translate(-112.6171,-6.2565056)"><path
         style="fill:#ffff99"
         d="m 36.14728,140.15809 c 0,-7.65681 0.012,-7.96668 0.30878,-7.96668 0.16983,0 0.65448,-0.0474 1.07701,-0.1053 l 0.76822,-0.10529 0.0433,7.03464 0.0433,7.03465 5.4356,0.0438 5.4356,0.0438 v 0.99357 0.99357 h -6.55591 -6.55592 z m 25.06185,6.97084 v -0.99583 h 6.97085 6.97084 v 0.99583 0.99584 h -6.97084 -6.97085 z m 27.25939,-7.01233 0.0431,-8.00818 1.01835,-0.0215 c 0.5601,-0.0118 1.0854,0.0255 1.16734,0.083 0.0819,0.0575 1.85534,2.17709 3.94089,4.71024 2.08555,2.53316 3.83823,4.60243 3.89483,4.59838 0.0566,-0.004 1.55933,-1.77334 3.33938,-3.93176 5.11843,-6.20638 4.39499,-5.49488 5.60157,-5.50909 l 1.03733,-0.0122 v 8.04966 8.04967 h -1.15979 -1.15978 l -0.0435,-6.15986 -0.0435,-6.15987 -3.56841,4.26983 c -1.96262,2.34841 -3.68284,4.41358 -3.82271,4.58927 -0.24156,0.30342 -0.33262,0.2214 -1.81732,-1.63689 -0.85965,-1.07597 -2.57506,-3.17252 -3.81202,-4.659 l -2.24902,-2.70269 -0.0435,6.2296 -0.0435,6.22961 h -1.16143 -1.16141 z m 33.48654,-0.0415 v -8.04966 h 0.96412 c 0.53026,0 1.08199,0.0934 1.22606,0.20746 0.14408,0.11411 1.92072,2.22403 3.9481,4.68872 2.02738,2.4647 3.75077,4.48126 3.82976,4.48126 0.079,0 1.88294,-2.09125 4.00881,-4.64723 l 3.8652,-4.64723 h 1.07882 1.07882 l 0.0431,8.00818 0.0431,8.00817 h -1.1634 -1.1634 v -6.15481 c 0,-3.61449 -0.0622,-6.13198 -0.1506,-6.09949 -0.0828,0.0304 -1.84645,2.09816 -3.91915,4.59496 l -3.76855,4.53964 -0.27166,-0.40739 c -0.14941,-0.22406 -1.84009,-2.29526 -3.75707,-4.60266 l -3.48543,-4.19527 -0.0435,6.16251 -0.0435,6.16251 h -1.15979 -1.15979 z m 32.0327,7.96728 c 0,-0.0625 7.59107,-15.61116 7.7182,-15.80909 0.0145,-0.0226 0.48766,-0.0893 1.05142,-0.14824 l 1.02501,-0.10714 2.63102,5.37638 c 1.44706,2.957 2.82094,5.78715 3.05306,6.28922 0.23213,0.50207 0.80065,1.71884 1.26338,2.70395 l 0.84134,1.7911 -1.25966,-0.0484 -1.25966,-0.0484 -1.15422,-2.48958 c -2.29998,-4.96093 -4.99714,-10.53925 -5.09561,-10.53885 -0.0554,2.2e-4 -0.32479,0.48277 -0.59865,1.07233 -0.27385,0.58957 -1.68613,3.53955 -3.13839,6.55551 l -2.64048,5.48358 h -1.21838 c -0.67011,0 -1.21838,-0.0371 -1.21838,-0.0824 z m -92.77863,-7.88429 v -0.99584 h 6.97085 6.97084 v 0.99584 0.99583 h -6.97084 -6.97085 z m 0,-7.0486 v -1.0736 l 6.97085,-0.005 6.97084,-0.005 v 1.07836 1.07836 h -6.97084 -6.97085 z m 16.09933,-17.132 c -3.26352,-0.54568 -6.02549,-2.9719 -7.27453,-6.39022 l -0.44319,-1.21292 -0.0434,-34.742103 c -0.0485,-38.848612 -0.15426,-35.46907 1.13631,-36.323128 1.70255,-1.126695 4.11621,-0.231999 4.40221,1.631815 0.0468,0.305162 0.10089,15.679083 0.12013,34.164273 0.0339,32.587703 0.0446,33.634573 0.3507,34.436663 0.40855,1.07046 1.6444,2.28488 2.68658,2.63998 0.70931,0.24169 3.64678,0.26716 30.81192,0.26716 27.33204,0 30.07872,0.0241 30.59429,0.26879 1.70632,0.80969 2.17846,3.0845 0.92162,4.44038 -0.92368,0.99646 1.21457,0.9359 -32.17895,0.91129 -16.86781,-0.0124 -30.85546,-0.0538 -31.08368,-0.092 z m 8.0029,-17.089106 c -0.67825,-0.33619 -1.18927,-1.03672 -1.31315,-1.80011 -0.13801,-0.85042 0.34189,-1.98262 1.01727,-2.40003 0.543,-0.33559 0.71409,-0.33856 19.49699,-0.33856 h 18.9492 l 0.66775,0.62287 c 0.50881,0.47462 0.68965,0.78606 0.75971,1.30843 0.12877,0.96006 -0.19684,1.80688 -0.90142,2.34432 l -0.59595,0.45459 -18.76786,0.0392 c -17.04807,0.0356 -18.81777,0.0145 -19.31254,-0.23075 z m -0.0244,-17.775267 c -1.65232,-0.84253 -1.7584,-3.10114 -0.19472,-4.14574 l 0.56395,-0.37675 18.77185,6.2e-4 c 18.43859,6.1e-4 18.78144,0.006 19.31276,0.33043 1.64037,1.00014 1.57318,3.27327 -0.1234,4.17484 -0.55296,0.29384 -1.39355,0.3073 -19.16983,0.30706 -17.37196,-2.5e-4 -18.62884,-0.0193 -19.16061,-0.29046 z m 0.15417,-17.58556 c -0.38706,-0.14149 -1.0035,-0.74974 -1.26056,-1.24382 -0.51842,-0.99637 -0.10306,-2.39754 0.91167,-3.07542 l 0.56395,-0.37675 18.77185,6.2e-4 c 18.43859,6.1e-4 18.78144,0.006 19.31276,0.33043 0.86108,0.525 1.23166,1.25745 1.15577,2.2843 -0.0469,0.63406 -0.17417,0.99003 -0.46566,1.30205 -0.8856,0.94798 0.27266,0.8969 -20.01918,0.8827 -10.2969,-0.007 -18.83367,-0.0541 -18.9706,-0.10411 z"
         id="path2"
         transform="translate(112.6171,6.2565056)" /><path
         style="fill:#cc66ff"
         d="m 149.86847,145.31052 c 0,-7.65681 0.012,-7.96668 0.30878,-7.96668 0.16983,0 0.65448,-0.0474 1.077,-0.1053 l 0.76822,-0.10529 0.0433,7.03464 0.0433,7.03465 5.4356,0.0438 5.4356,0.0438 v 0.99357 0.99357 h -6.55591 -6.55591 z m 25.06185,6.97084 v -0.99583 h 6.97084 6.97085 v 0.99583 0.99584 h -6.97085 -6.97084 z m 27.25939,-7.01233 0.0431,-8.00818 1.01835,-0.0215 c 0.5601,-0.0118 1.0854,0.0255 1.16734,0.083 0.0819,0.0575 1.85534,2.17709 3.94089,4.71024 2.08555,2.53316 3.83822,4.60243 3.89482,4.59838 0.0566,-0.004 1.55933,-1.77334 3.33938,-3.93176 5.11843,-6.20638 4.39499,-5.49488 5.60157,-5.50909 l 1.03733,-0.0122 v 8.04966 8.04967 h -1.15979 -1.15978 l -0.0435,-6.15986 -0.0435,-6.15987 -3.56841,4.26983 c -1.96262,2.34841 -3.68284,4.41358 -3.82271,4.58927 -0.24156,0.30342 -0.33262,0.2214 -1.81731,-1.63689 -0.85965,-1.07597 -2.57506,-3.17252 -3.81202,-4.659 l -2.24902,-2.70269 -0.0435,6.2296 -0.0435,6.22961 h -1.16143 -1.16141 z m 33.48654,-0.0415 v -8.04966 h 0.96412 c 0.53026,0 1.08199,0.0934 1.22606,0.20746 0.14408,0.11411 1.92072,2.22403 3.9481,4.68872 2.02738,2.4647 3.75077,4.48126 3.82976,4.48126 0.079,0 1.88294,-2.09125 4.00881,-4.64723 l 3.8652,-4.64723 h 1.07882 1.07882 l 0.0431,8.00818 0.0431,8.00817 h -1.1634 -1.1634 v -6.15481 c 0,-3.61449 -0.0622,-6.13198 -0.1506,-6.09949 -0.0828,0.0304 -1.84645,2.09816 -3.91915,4.59496 l -3.76855,4.53964 -0.27166,-0.40739 c -0.14941,-0.22406 -1.84009,-2.29526 -3.75707,-4.60266 l -3.48543,-4.19527 -0.0435,6.16251 -0.0435,6.16251 h -1.15979 -1.15979 z m 32.0327,7.96728 c 0,-0.0625 7.59107,-15.61116 7.7182,-15.80909 0.0145,-0.0226 0.48766,-0.0893 1.05142,-0.14824 l 1.02501,-0.10714 2.63102,5.37638 c 1.44706,2.957 2.82094,5.78715 3.05306,6.28922 0.23213,0.50207 0.80065,1.71884 1.26338,2.70395 l 0.84134,1.7911 -1.25966,-0.0484 -1.25966,-0.0484 -1.15422,-2.48958 c -2.29998,-4.96093 -4.99714,-10.53925 -5.09561,-10.53885 -0.0554,2.2e-4 -0.32479,0.48277 -0.59865,1.07233 -0.27385,0.58957 -1.68613,3.53955 -3.13839,6.55551 l -2.64048,5.48358 h -1.21838 c -0.67011,0 -1.21838,-0.0371 -1.21838,-0.0824 z m -92.77863,-7.88429 v -0.99584 h 6.97084 6.97085 v 0.99584 0.99583 h -6.97085 -6.97084 z m 0,-7.0486 v -1.0736 l 6.97084,-0.005 6.97085,-0.005 v 1.07836 1.07836 h -6.97085 -6.97084 z m 16.09933,-17.13201 c -3.26353,-0.54568 -6.0255,-2.9719 -7.27453,-6.39022 l -0.44319,-1.21292 -0.0434,-34.742106 c -0.0485,-38.848612 -0.15427,-35.46907 1.1363,-36.323128 1.70255,-1.126695 4.11621,-0.231999 4.40222,1.631815 0.0468,0.305162 0.10088,15.679083 0.12012,34.164273 0.0339,32.587706 0.0446,33.634576 0.35071,34.436666 0.40855,1.07046 1.6444,2.28488 2.68658,2.63998 0.70931,0.24169 3.64678,0.26716 30.81192,0.26716 27.33204,0 30.07872,0.0241 30.59429,0.26879 1.70632,0.80969 2.17846,3.0845 0.92162,4.44038 -0.92368,0.99646 1.21457,0.9359 -32.17895,0.91129 -16.86781,-0.0124 -30.85547,-0.0538 -31.08368,-0.092 z m 8.00289,-17.08911 c -0.67824,-0.33619 -1.18927,-1.03672 -1.31315,-1.80011 -0.138,-0.85042 0.34189,-1.98262 1.01728,-2.400029 0.54299,-0.33559 0.71409,-0.33856 19.49699,-0.33856 h 18.9492 l 0.66775,0.622869 c 0.50881,0.47462 0.68965,0.78606 0.75971,1.30843 0.12877,0.96006 -0.19684,1.80688 -0.90142,2.34432 l -0.59595,0.45459 -18.76786,0.0392 c -17.04808,0.0356 -18.81777,0.0145 -19.31255,-0.23075 z m -0.0244,-17.775266 c -1.65231,-0.84253 -1.7584,-3.10114 -0.19472,-4.14574 l 0.56396,-0.37675 18.77184,6.2e-4 c 18.43859,6.1e-4 18.78144,0.006 19.31276,0.33043 1.64037,1.00014 1.57318,3.27327 -0.1234,4.17484 -0.55296,0.29384 -1.39355,0.3073 -19.16983,0.30706 -17.37195,-2.5e-4 -18.62883,-0.0193 -19.16061,-0.29046 z m 0.15418,-17.58556 c -0.38706,-0.14149 -1.0035,-0.74974 -1.26057,-1.24382 -0.51841,-0.99637 -0.10305,-2.39754 0.91167,-3.07542 l 0.56396,-0.37675 18.77184,6.2e-4 c 18.43859,6.1e-4 18.78144,0.006 19.31276,0.33043 0.86108,0.525 1.23166,1.25745 1.15577,2.2843 -0.0469,0.63406 -0.17417,0.99003 -0.46566,1.30205 -0.8856,0.94798 0.27266,0.8969 -20.01918,0.8827 -10.2969,-0.007 -18.83367,-0.0541 -18.97059,-0.10411 z"
         id="path1" /></g></g></svg>
